<svg id="a" width="211.37" height="45" version="1.1" viewBox="0 0 55.924 11.906" xmlns="http://www.w3.org/2000/svg"><g id="b" transform="matrix(.013138 0 0 .013138 .19034 12.259)" fill="#fff"><path id="c" d="m710-150q-63 0-106.5-43.5t-43.5-106.5 43.5-106.5 106.5-43.5 106.5 43.5 43.5 106.5-43.5 106.5-106.5 43.5zm0-80q29 0 49.5-20.5t20.5-49.5-20.5-49.5-49.5-20.5-49.5 20.5-20.5 49.5 20.5 49.5 49.5 20.5zm-550-30v-80h320v80zm90-250q-63 0-106.5-43.5t-43.5-106.5 43.5-106.5 106.5-43.5 106.5 43.5 43.5 106.5-43.5 106.5-106.5 43.5zm0-80q29 0 49.5-20.5t20.5-49.5-20.5-49.5-49.5-20.5-49.5 20.5-20.5 49.5 20.5 49.5 49.5 20.5zm230-30v-80h320v80z" fill="#fff"/></g><path id="d" d="m15.142 8.4126v-4.7395h1.2746v1.0682h-0.08079q0.12567-0.39496 0.35456-0.65078 0.2289-0.26031 0.5296-0.38598 0.30071-0.13016 0.63283-0.13016 0.54307 0 0.94251 0.31417 0.39945 0.30968 0.48472 0.85275h-0.13913q0.08976-0.36354 0.31866-0.62385 0.2289-0.26031 0.55653-0.39945 0.33212-0.14362 0.71811-0.14362 0.45779 0 0.81685 0.19748 0.36354 0.19748 0.57 0.57897 0.20646 0.37701 0.20646 0.92007v3.1417h-1.3195v-2.8994q0-0.42638-0.23338-0.63732-0.2289-0.21094-0.57-0.21094-0.25134 0-0.43984 0.1122-0.1885 0.1122-0.29173 0.31417-0.09874 0.19748-0.09874 0.46677v2.8545h-1.2746v-2.9353q0-0.36803-0.21992-0.58795-0.21992-0.22441-0.57-0.22441-0.23338 0-0.42638 0.1122-0.1885 0.10772-0.3052 0.32315-0.1122 0.21094-0.1122 0.51614v2.7961zm8.0401 1.8761v-1.0457h0.60141q0.16157 0 0.26031-0.04937 0.09874-0.04937 0.16606-0.16157 0.07181-0.10772 0.13464-0.29173l0.13016-0.34559-1.8222-4.7215h1.3868l0.7944 2.3428q0.13464 0.41291 0.26031 0.8348 0.12567 0.4174 0.24236 0.83929h-0.36803q0.1122-0.42189 0.23787-0.83929 0.12567-0.42189 0.26031-0.8348l0.79889-2.3428h1.3734l-2.087 5.4711q-0.14811 0.39496-0.35905 0.6463-0.20646 0.25582-0.48921 0.37701-0.27827 0.12118-0.6463 0.12118-0.21543 0-0.43984 0-0.21992 0-0.43535 0zm7.971-1.7683q-0.947 0-1.6651-0.43086-0.71362-0.43086-1.1176-1.2073-0.39945-0.77645-0.39945-1.8087 0-1.0682 0.41291-1.8446t1.131-1.1939q0.71811-0.4174 1.6157-0.4174 0.57448 0 1.0816 0.17055 0.50716 0.16606 0.89763 0.48023 0.39496 0.30968 0.6463 0.74055 0.25134 0.43086 0.31417 0.95598h-1.4003q-0.058346-0.25583-0.18401-0.46228-0.12567-0.21094-0.32315-0.35905-0.19299-0.14811-0.44433-0.22441-0.24685-0.080787-0.54756-0.080787-0.56102 0-0.96944 0.27378-0.40394 0.26929-0.62386 0.77196-0.21543 0.49819-0.21543 1.1894 0 0.68669 0.21992 1.1849 0.21992 0.49819 0.62834 0.77196 0.40842 0.26929 0.97842 0.26929 0.46677 0 0.82133-0.17504 0.35456-0.17953 0.55204-0.49819 0.20197-0.32315 0.20197-0.74504l0.32764 0.026929h-1.7863v-1.0502h2.8096v0.85275q0 0.83031-0.38149 1.4631-0.377 0.63283-1.0457 0.99188-0.66874 0.35456-1.535 0.35456zm3.797-0.10772v-6.6874h2.639q0.75401 0 1.3016 0.26929 0.54756 0.2648 0.84378 0.7585 0.30071 0.48921 0.30071 1.1669 0 0.67322-0.30071 1.1669-0.30071 0.48921-0.85724 0.7585-0.55204 0.26929-1.3061 0.26929h-1.8536v-1.1579h1.7818q0.36803 0 0.63283-0.12567 0.2648-0.13016 0.40842-0.36354 0.14362-0.23338 0.14362-0.54756 0-0.32315-0.14362-0.55204-0.14362-0.2289-0.40842-0.35456-0.2648-0.13016-0.63283-0.13016h-1.1669v5.5294zm7.1856-6.6874v6.6874h-1.3824v-6.6874zm3.9316 6.7951q-0.89763 0-1.6113-0.4174-0.71362-0.42189-1.1265-1.1939-0.41291-0.77645-0.41291-1.8357 0-1.0682 0.41291-1.8401 0.41291-0.77645 1.1265-1.1939 0.71362-0.42189 1.6113-0.42189 0.90212 0 1.6157 0.42189 0.71362 0.4174 1.1265 1.1939 0.41291 0.77196 0.41291 1.8401 0 1.0637-0.41291 1.8357t-1.1265 1.1939q-0.71362 0.4174-1.6157 0.4174zm0-1.2208q0.51614 0 0.91558-0.26031 0.39945-0.26031 0.62386-0.7585t0.22441-1.2073q0-0.71362-0.22441-1.2118-0.22441-0.50267-0.62386-0.76299-0.39945-0.26031-0.91558-0.26031-0.51165 0-0.9111 0.26031-0.39496 0.26031-0.62386 0.76299-0.22441 0.49819-0.22441 1.2118 0 0.70913 0.22441 1.2073 0.2289 0.49819 0.62386 0.7585 0.39945 0.26031 0.9111 0.26031zm5.7493 1.2118q-0.61937 0-1.0816-0.30968-0.46228-0.30968-0.71811-0.86622-0.25134-0.55653-0.25134-1.2971 0-0.73157 0.25582-1.2836 0.26031-0.55653 0.71811-0.86622 0.46228-0.31417 1.0682-0.31417 0.30968 0 0.57 0.085275 0.26031 0.080787 0.46677 0.24685 0.20646 0.16606 0.35905 0.42189h0.0045v-2.6031h1.3195v6.6874h-1.3016v-0.72708h-0.0045q-0.13913 0.27378-0.35008 0.46228-0.20646 0.18401-0.47574 0.27378-0.26929 0.089763-0.57897 0.089763zm0.3411-1.0772q0.33661 0 0.58346-0.17055 0.25134-0.17504 0.39047-0.48921t0.13913-0.73606q0-0.42638-0.13913-0.73606-0.13913-0.31417-0.39047-0.48472-0.24685-0.17504-0.58346-0.17504-0.31866 0-0.55653 0.16606t-0.37252 0.47575q-0.13016 0.30968-0.13016 0.75401 0 0.44433 0.13016 0.7585 0.13464 0.30968 0.37252 0.47575 0.23787 0.16157 0.55653 0.16157z" fill="#fff" stroke-width=".22979" aria-label="myGPIOd"/></svg>